# xmcd
#
# Track frame offsets: 
#        150
#        19322
#        48180
#        61740
#        70382
#        81572
#        99347
#        119470
#        130275
#        144757
#        162905
#        171797
#        187855
#
# Disc length: 3092 seconds
#
# Revision: 4
# Processed by: cddbd v1.5.2PL0 Copyright (c) Steve Scherf et al.
# Submitted via: ExactAudioCopy v1.0b2
#
DISCID=ab0c120d
DTITLE=Various Artist - Space Battleship Yamato CD-BOX - Final Yamato Part 2
DYEAR=2004
DGENRE=Soundtrack
TTITLE0=Two Galaxies
TTITLE1=Planet Deingil Drowns
TTITLE2=Mobile Fortress
TTITLE3=Hyper-Radiation Missile
TTITLE4=Great Devil
TTITLE5=Final Yamato
TTITLE6=Sorrow
TTITLE7=Gigantic Battleship "Garnvolst"
TTITLE8=Yamato and Me (Kodai)
TTITLE9=Unfortunate Deingil Boy
TTITLE10=Two in the Cosmo Zero
TTITLE11=Aquarius Requiem
TTITLE12=Symphony of the Aquarius
EXTD=YEAR: 1983.4.21
EXTT0=
EXTT1=
EXTT2=
EXTT3=
EXTT4=
EXTT5=
EXTT6=
EXTT7=
EXTT8=
EXTT9=
EXTT10=
EXTT11=
EXTT12=
PLAYORDER=
